<svg id="Layer_1" data-name="Layer 1" xmlns="http://www.w3.org/2000/svg" viewBox="0 0 1681.94 1792"><defs><style>.cls-1{fill-rule:evenodd;}</style></defs><title>2</title><path class="cls-1" d="M1702,804.74l35.92-81.66-14.67-31.17,11-40.59-45.39-27.21,10.9-74.83-71,12.7,101.9-184.23-30-19.62L1550.56,545l-99.9,53.94-22.16,179.4-45.59,83.89a889.62,889.62,0,0,0-133.87-46.9l20.79-90,53.23-24.47,84.35-57,3.45-10.84-23.56-9.33-40.72,20.41-24.3-19.88-5.17-20L1348,468.68l-24.36-8.75L1291,564.41l-11.09-24-17.37-7.13-14.23,14.33L1246.53,536l-22-4.69-16.41,22.89-24.68,5.56-17.81,70.57,21.81,73.1-40.14,90.2a1297.52,1297.52,0,0,0-131.55-14.53l4.85-110.84,97.15-116.15,120.84-249.78-50.69-19.84L1081.54,411.76l-43.17,25.17L1028.29,28.81l-42.85-6.64-35.6,283.88-17.77.61L926.7,13.57,876.77,0,856.7,308.49l-12-3L798.59,70.69l-48.86,33,33.42,229.75L767.84,362,662.42,182,625,217.29l71.7,180.57L716,587.46l56.81,97.71-20.68,105q-29.13,4.14-56.9,9.4L670.1,730.17l-13-92.8-10.33-66.2L610.45,576,535.31,412.8l-27.62,19.45,39.63,96.23L554,552.78l-37.59-29.24-23.68,19.19,2.48,16.83L469.84,575.3l18.26,33.26-20.3,22.76-2.06,48.88,44.31,64.91,46.08,18.52L580,827.76a908.61,908.61,0,0,0-88.76,32.06L424.65,754.94,308.21,515.63,199.5,320.39l-22.22,7.14,39.59,116.63,34.4,99.26L74.41,369.09,56,388.44,173.89,565l-43.83,10.08,21.87,65.49-14.59,36.79,10.13,29.95L196,798.47l89.76,73.65,45.48,79.26c-58.18,44.24-106,95.79-143.9,153.44-32.41,49.26,192.5,201.14,229.11,170.41A662.79,662.79,0,0,1,500,1208.47l-38.73-59.39-79.75-29.26-58.61-10.47,1.85-12.35,61.42-.75,4.08-9.78-55-48.9,14.94-10.12,53.15,42.78,6.45-6.16L360.41,998l16-11.11,56.9,62.88,6.35-4.4L421.35,972l15.94-7.76,36.18,92.19,8.08-4,12-29.93L507.38,1002l12.17,4-16.64,109.43,61.32,53.77a819.56,819.56,0,0,1,81.07-38.81L625.95,1027.7l-50-40.56L553.26,946.3l12.67-3.56,26.67,28.58L603.88,969l-21.79-88,8.34-8,31,64.21,6.52-3.55L621.77,857l14.24-1.5,16.53,79.33,5.12-2.3,19.87-55.83,12.1,4.36L678.7,942.56l6.8,2.34,23-38.27,10.41,5.07-41.3,106,31.07,89.53a784.68,784.68,0,0,1,120-28.16l6.79-59.9-22.32-77.09L824,909.47l25.28-7,3.69-19.93,18.47,1.91-4-89.69L886.22,788l16.39,111.23,6.48,2.6,21.85-107.32,19.47,6.23L940.07,919.31l22.08,24.28-12.81,54.05-23.12,37.14v35.85c32.64-1.66,87.34,1.61,125.82,11l10.53-30.74,11.18-74.34,24.5-6.44,41.65-97.87,18,0.22-23.25,82.65,24.24-18.86L1172.23,947l0.35,12.44,12.75,3.81,1.7,16.13-9.63,12.14,7.88,3,7.16,20.32-13.95,18.91-45.06,35.55-7.9,26.6c41.64,8.3,90.06,27.31,145.39,53.89l21.52-40.69-5-72.71,26.58-93.92,14.85,12.61-2.14,51.09,16.78,34.69,23.85-41,63.17-88.95,11.35,7.65-45.83,90.9,5.16,3.83L1473,935.2l16.89,5.87-64.32,90.58,5,5.05,75.63-60.42,7.22,8.07-68,76.05,5.48,8.58,60.24-34,6.21,13.37-151.69,117.54-12.35,29.64a663.2,663.2,0,0,1,85.34,64c45.52,53.54,252.54-138.84,223.7-177.35A676.52,676.52,0,0,0,1561,973.81l35.37-83.39Z" transform="translate(-56)"/><path class="cls-1" d="M922.66,1558.59c-110.91,13.48-129.53,55.93-117.07,136s44.78,108.79,152.8,93.49,115.89-46,105.83-135.38S1030.21,1545.11,922.66,1558.59Z" transform="translate(-56)"/><path class="cls-1" d="M926.49,1187.07c-148.88,1.4-297.22,57.15-399.5,167.11-33,35.46-51.88,70.89-52.13,100.16-0.28,33.23,185.77,121.71,199.56,113.8,71-65.41,146.1-119.38,256.8-120.19,110.7,0.81,185.85,54.78,256.8,120.19,14.78,19.28,198.61-78.12,199.56-113.8,0.78-29.17-17.6-64.46-50.31-99.8C1232.53,1241.41,1079.22,1185.64,926.49,1187.07Z" transform="translate(-56)"/></svg>