<svg id="Layer_2" data-name="Layer 2" xmlns="http://www.w3.org/2000/svg" viewBox="0 0 175.5 167.9"><defs><style>.cls-1{fill:none;}.cls-2{fill:#fff;}</style></defs><title>OPIN white</title><path class="cls-1" d="M2380.69-220.4c0.44,0,.87,0,1.27,0h0.24c-0.42,0-.86,0-1.32,0h-0.19Z" transform="translate(-2290.52 260.69)"/><path class="cls-1" d="M2386.4-200.91A11.14,11.14,0,0,0,2385-201a17.15,17.15,0,0,0-2.33.18c-2.47.33-8.6,1.56-11.95,2.26l-1.91,13.82a34,34,0,0,0,10.28-3.16C2384.71-191.34,2386.08-197.73,2386.4-200.91Z" transform="translate(-2290.52 260.69)"/><path class="cls-1" d="M2329.35-168.39c0.31-1.19,3.49-13.76,3.21-20.56v-0.15a24.76,24.76,0,0,0-.51-4.4,16,16,0,0,0-.66-1.69c-1-2.12-3.45-2-3.65-2.1l-0.62,0c-7.77.28-10.31,7.36-11.53,10.78-0.05.15-4.51,12.38-3.64,21.48v0.16h0a8.5,8.5,0,0,0,1.08,3.11,6.47,6.47,0,0,0,4.12,3.27,9.35,9.35,0,0,0,1.52.25,7.16,7.16,0,0,0,4.07-.73C2325.06-160.37,2327.63-163.13,2329.35-168.39Z" transform="translate(-2290.52 260.69)"/><path class="cls-1" d="M2326.13-220.63a22.69,22.69,0,0,1,13.17,4.69,77.06,77.06,0,0,1,6.74,5,25.21,25.21,0,0,1,3.47,4.24c0.36,0.66.69,1.34,1,2l1.37-9.74a5.07,5.07,0,0,1,1.16-2.73,6,6,0,0,1,3-1.76c4.72-1.47,16.6-4.88,24.87-4.88,0.54,0,1.06,0,1.56,0h0.69c2.69,0,9.46.54,14.38,5.59a16.55,16.55,0,0,1,1.92,2.42,11,11,0,0,1,1.13-.06c0.5,0,1,0,1.63.09a48.81,48.81,0,0,1,5.54.79,26.77,26.77,0,0,1,4,1.18L2413-220c0-.09,0-0.17.06-0.26a4.34,4.34,0,0,1,.89-1.8,4.9,4.9,0,0,1,3-1.6l0.2,0h0.2L2424-224a7.62,7.62,0,0,1,.77,0,5.25,5.25,0,0,1,2.11.4c0.7,0.22,3.56,1.19,4.33,2a10.18,10.18,0,0,1,.79,1.66c0.87,2.31,2,6.67,2.2,7.56l4.38,16.48,4.81-23.93a71.42,71.42,0,0,0-4.79-7c-0.51-.66-1-1.31-1.57-2l-0.69-.82-0.17-.2-0.11-.12c-1-1.07-1.93-2.12-2.94-3.14a77.14,77.14,0,0,0-6.43-5.79l-0.79-.61L2425-240c-0.58-.43-1.16-0.85-1.75-1.26-1.18-.82-2.38-1.62-3.61-2.37s-2.54-1.51-3.84-2.21l-0.54-.29-1-.49c-0.65-.32-1.3-0.64-2-0.94a77.2,77.2,0,0,0-8.49-3.32l-0.44-.14-0.33-.1-1.06-.31c-0.71-.2-1.42-0.39-2.14-0.57-1.44-.36-2.89-0.69-4.35-1a73.18,73.18,0,0,0-18.37-1.17,75.92,75.92,0,0,0-58.54,34,34.12,34.12,0,0,1,5.72-.51C2325.22-220.69,2325.85-220.65,2326.13-220.63Z" transform="translate(-2290.52 260.69)"/><path class="cls-1" d="M2438.7-147.19c-0.28,0-3.07-.13-3.07-0.13h0c-2.46,0-4.73-2.44-6-6.81l-1.25-5.05-2.52-9.59-5.59,27.8a4.54,4.54,0,0,1-1.42,2.73,4.16,4.16,0,0,1-2.73.88c-0.3,0-.56,0-0.71,0l-6.89-.26-0.52,0c-2.57-.16-3.77-0.36-4.48-1.16a8.56,8.56,0,0,1-.41,1.84,11.6,11.6,0,0,1-1.24,2.39,15.16,15.16,0,0,1-2.11,2.55,16,16,0,0,1-2.93,2.24,13.22,13.22,0,0,1-4,1.54,13.12,13.12,0,0,1-6,0,12.43,12.43,0,0,1-1.55-.65,17.21,17.21,0,0,1-1.74-1.64l-4.19-4.73a8.2,8.2,0,0,1-2.49-6.92,11.5,11.5,0,0,1,1.22-4.23,12.09,12.09,0,0,1,3-3.71,13.36,13.36,0,0,1,4.25-2.4l-2.77-3.22,0.11,0c-0.09-.13-0.21-0.24-0.29-0.38-1-1.66-.73-3.79-0.46-5.24l0.06-.34c0.15-.8.3-1.62,0.45-2.42a70.11,70.11,0,0,1-16.84,2.85l-2.89,20.88a5,5,0,0,1-1.57,3.14,4.49,4.49,0,0,1-2.94,1c-0.29,0-.56,0-0.71,0l-6-.22a7.33,7.33,0,0,1-3.4-1.08c-1.31-1-3.43-2.95-5.58-5a28,28,0,0,1-19,8.37c1,1.23,2.06,2.39,3.09,3.45a77.49,77.49,0,0,0,7.29,6.63l0.91,0.7,1,0.72c0.66,0.47,1.31.94,2,1.4,1.36,0.92,3.17,1.71,4.3,2.9,2.8,3,1.83,8.07,1,11.64a26.28,26.28,0,0,1-2.9,7.42l0.79-.08,0.25,0,0.35-.05c0.4-.07.8-0.13,1.2-0.22,0.83-.17,1.66-0.37,2.47-0.61a24.59,24.59,0,0,0,4.42-1.74,29,29,0,0,0,8.19-6.45,39,39,0,0,1-7.17-7,0.34,0.34,0,0,1,0-.45,0.34,0.34,0,0,1,.45,0c3.11,2.41,7.6,4.19,10.82,5.26l0.55,0.18a75.12,75.12,0,0,0,36.82-1,76.15,76.15,0,0,0,45.16-35.58h-5.67Z" transform="translate(-2290.52 260.69)"/><path class="cls-2" d="M2465.25-222.07l-5.07-5.07c0-.06-0.07-0.12-0.12-0.17a4.93,4.93,0,0,0-3.14-1.61l-0.17,0h-0.18l-6.59-.23c-0.17,0-.45,0-0.75,0a4.79,4.79,0,0,0-3.15,1,4.17,4.17,0,0,0-.69.77,84.79,84.79,0,0,0-29-24.36,82.5,82.5,0,0,0-42-8.79,80.9,80.9,0,0,0-62.6,35.65,74.94,74.94,0,0,0-5.37,9.6,25.22,25.22,0,0,0-8.73,11,78.42,78.42,0,0,0-7,38.21v0a36.65,36.65,0,0,0,3.36,11.41,30,30,0,0,0,3.81,6c0.52,0.79,1.1,1.61,1.8,2.5a64.93,64.93,0,0,0,6.25,6.33l1.59,1.16a24.47,24.47,0,0,0,7.43,3.25,85,85,0,0,0,17.59,17.28c1.17,0.86,2.38,1.67,3.59,2.47,0,0.18,0,.71,0,0.82a27.46,27.46,0,0,1-.3,2.79,27.66,27.66,0,0,1-1.82,6.46,13,13,0,0,1-4.17,5.39,10.49,10.49,0,0,1-1,.61c-1,.55-1,1.92-0.62,2.82a5.73,5.73,0,0,0,3.94,3.08,30.9,30.9,0,0,0,11.61.64,32.26,32.26,0,0,0,20.78-11c26.31,5.35,54.33-2.49,73.37-21.35a78,78,0,0,0,22.44-66.08l5.58-28.32,0-.4A2.2,2.2,0,0,0,2465.25-222.07Zm-171.18,55.67a74.36,74.36,0,0,1,6.73-36.54c5.61-13.36,19.42-14.4,23.52-14.4,1,0,1.6.05,1.62,0.06,9.73,0.16,15.45,8,15.5,8.08,6.53,8.75,4.69,25.08,4.67,25.24a83.85,83.85,0,0,1-5.93,25.94c-5.9,13.14-19,14.65-24.55,14.67a24,24,0,0,1-2.93-.16,21.37,21.37,0,0,1-12-7.06C2295-157.34,2294.09-166.26,2294.07-166.39Zm95.62-18c1.06-4.36,2.16-8.74,3.29-13.09,1-3.88,2.07-7.77,3.17-11.61a5.46,5.46,0,0,1,2-3.27,4.7,4.7,0,0,1,2.45-.52c0.42,0,.87,0,1.35.07a45.76,45.76,0,0,1,5.21.74,21.36,21.36,0,0,1,4.86,1.6,4.84,4.84,0,0,1,2.61,2.37,5.24,5.24,0,0,1-.29,3.5c-1.47,4.08-3,8.2-4.43,12.31s-2.85,8.19-4.23,12.3c-1.29,3.86-2.54,7.76-3.73,11.65-1,3.44-2.09,6.93-3,10.39a3.66,3.66,0,0,1-1.29,2.22,5,5,0,0,1-2.54.46h-0.14c-1.43,0-2.86,0-4.1-.11a21.16,21.16,0,0,1-3.61-.66,3.84,3.84,0,0,1-2.39-1.51,5.13,5.13,0,0,1-.12-3.27c0.65-3.54,1.32-7.2,2.07-10.76C2387.67-175.86,2388.66-180.16,2389.69-184.41Zm-3.28,34.52a11.61,11.61,0,0,1,3.72-.55l0.88,0a8.09,8.09,0,0,1,3.49.85,5,5,0,0,1,1.95,1.84,4.74,4.74,0,0,1,.62,2.3,6.4,6.4,0,0,1-.33,2.18,9.07,9.07,0,0,1-1,1.82,12.29,12.29,0,0,1-1.73,2.09,13.33,13.33,0,0,1-2.44,1.85,10.56,10.56,0,0,1-3.18,1.22,12.2,12.2,0,0,1-2.61.3,7.88,7.88,0,0,1-3.76-.87,5.08,5.08,0,0,1-2.34-5.11,8.57,8.57,0,0,1,.92-3.18,9.18,9.18,0,0,1,2.26-2.82A10.47,10.47,0,0,1,2386.41-149.89Zm-4-70.46s0.26,0,.69,0c2.26,0,8,.45,12,4.57a13,13,0,0,1,1.08,1.26,8.44,8.44,0,0,0-2.79,4.63c-1.1,3.84-2.17,7.77-3.19,11.68-1.11,4.27-2.22,8.69-3.3,13.13q-1,4-1.84,7.88c-3,1.51-12.63,5.75-26.74,5.88h0L2355-147.7a2.3,2.3,0,0,1-.43,1.08,1.19,1.19,0,0,1-.7.18h-0.16l-6.72-.23a1.56,1.56,0,0,1-.86-0.36,1.89,1.89,0,0,1-.21-1.08l9.26-65.79a2.25,2.25,0,0,1,.34-1,2.76,2.76,0,0,1,1.46-.79c4.54-1.41,15.88-4.67,23.69-4.72h0.19c0.46,0,.9,0,1.32,0h0.24Zm39.66,24.6-9.51,47.31a2.32,2.32,0,0,1-.51,1.2,1.47,1.47,0,0,1-1,.25c-0.25,0-.45,0-0.45,0l-6.7-.23a1.77,1.77,0,0,1-1-.45,1,1,0,0,1-.17-0.36l0.13-.07a6.11,6.11,0,0,0,2.44-3.79c1-3.59,2.06-7.23,3-10.31,1.11-3.64,2.32-7.43,3.71-11.58,1.27-3.8,2.65-7.81,4.21-12.26,1-2.84,2-5.72,3-8.51l1.37-3.79a9.18,9.18,0,0,0,.62-3.77l-4.49-8h0a7.12,7.12,0,0,0-1.94-2l1.4-7.29v0a1.06,1.06,0,0,1,.21-0.48,1.72,1.72,0,0,1,1-.44l6.79-.24a2.71,2.71,0,0,1,.5,0,1.51,1.51,0,0,1,1,.25,2.34,2.34,0,0,1,.51,1.21l8.53,31.31,3.1,11.83,0.05-.26L2438-176l9.73-48.38a2.31,2.31,0,0,1,.51-1.2,1.5,1.5,0,0,1,1-.25,5.18,5.18,0,0,1,.53,0l6.7,0.23a1.78,1.78,0,0,1,1,.45,2,2,0,0,1,.27,1.24s-5.66,28.28-9.55,47.61c-2.08,10-3.67,17.65-3.68,17.66-0.43,1.69-1.5,1.81-1.76,1.82h-9a3.4,3.4,0,0,1-1.3-.4,3,3,0,0,1-.36-0.85l-9.91-37.67-0.05.26Zm-45-58.38a73.18,73.18,0,0,1,18.38,1.17c1.46,0.28,2.91.6,4.35,1,0.72,0.18,1.43.37,2.14,0.57l1.06,0.31,0.33,0.1,0.44,0.14a77.2,77.2,0,0,1,8.49,3.32c0.66,0.3,1.31.62,2,.94l1,0.49,0.54,0.29c1.3,0.7,2.58,1.44,3.84,2.21s2.43,1.55,3.61,2.37c0.59,0.41,1.17.83,1.75,1.26l0.86,0.65,0.79,0.61a77.14,77.14,0,0,1,6.43,5.79c1,1,2,2.07,2.94,3.14l0.11,0.12,0.17,0.2,0.69,0.82c0.53,0.64,1.06,1.3,1.57,2a71.42,71.42,0,0,1,4.79,7l-4.81,23.93-4.38-16.48c-0.2-.89-1.33-5.24-2.2-7.56a10.18,10.18,0,0,0-.79-1.66c-0.77-.86-3.63-1.82-4.33-2a5.25,5.25,0,0,0-2.11-.4,7.62,7.62,0,0,0-.77,0l-6.63.24h-0.2l-0.2,0a4.9,4.9,0,0,0-3,1.6,4.34,4.34,0,0,0-.89,1.8c0,0.08,0,.17-0.06.26l-1.22,6.31a26.77,26.77,0,0,0-4-1.18,48.81,48.81,0,0,0-5.54-.79c-0.59-.06-1.12-0.09-1.63-0.09a11,11,0,0,0-1.13.06,16.55,16.55,0,0,0-1.92-2.42c-4.92-5-11.69-5.59-14.38-5.59h-0.69c-0.5,0-1,0-1.56,0-8.27,0-20.15,3.41-24.87,4.88a6,6,0,0,0-3,1.76,5.07,5.07,0,0,0-1.16,2.73l-1.37,9.74c-0.32-.7-0.65-1.38-1-2a25.21,25.21,0,0,0-3.47-4.24,77.06,77.06,0,0,0-6.74-5,22.69,22.69,0,0,0-13.17-4.69c-0.28,0-.91-0.06-1.8-0.06a34.12,34.12,0,0,0-5.72.51A75.92,75.92,0,0,1,2377.15-254.13Zm22.06,142.52a75.12,75.12,0,0,1-36.82,1l-0.55-.18c-3.22-1.07-7.71-2.85-10.82-5.26a0.34,0.34,0,0,0-.45,0,0.34,0.34,0,0,0,0,.45,39,39,0,0,0,7.17,7,29,29,0,0,1-8.19,6.45,24.59,24.59,0,0,1-4.42,1.74c-0.81.24-1.64,0.44-2.47,0.61-0.4.08-.8,0.15-1.2,0.22l-0.35.05-0.25,0-0.79.08a26.28,26.28,0,0,0,2.9-7.42c0.85-3.57,1.82-8.69-1-11.64-1.13-1.19-2.94-2-4.3-2.9-0.67-.45-1.33-0.92-2-1.4l-1-.72-0.91-.7a77.49,77.49,0,0,1-7.29-6.63c-1-1.06-2.07-2.22-3.09-3.45a28,28,0,0,0,19-8.37c2.16,2,4.27,4,5.58,5a7.33,7.33,0,0,0,3.4,1.08l6,0.22c0.16,0,.42,0,0.71,0a4.49,4.49,0,0,0,2.94-1,5,5,0,0,0,1.57-3.14l2.89-20.88a70.11,70.11,0,0,0,16.84-2.85c-0.15.81-.3,1.63-0.45,2.42l-0.06.34c-0.27,1.46-.51,3.58.46,5.24,0.08,0.14.19,0.25,0.29,0.38a6.33,6.33,0,0,0,3,2.16,7.19,7.19,0,0,0,.07.89l-0.23.06-0.22.08a13.36,13.36,0,0,0-4.25,2.4,12.09,12.09,0,0,0-3,3.71,11.5,11.5,0,0,0-1.22,4.23,8.2,8.2,0,0,0,2.49,6.92l4.19,4.73a17.21,17.21,0,0,0,1.74,1.64,12.43,12.43,0,0,0,1.55.65,13.12,13.12,0,0,0,6,0,13.22,13.22,0,0,0,4-1.54,16,16,0,0,0,2.93-2.24,15.16,15.16,0,0,0,2.11-2.55,11.6,11.6,0,0,0,1.24-2.39,8.56,8.56,0,0,0,.41-1.84c0.71,0.8,1.91,1,4.48,1.16l0.52,0,6.89,0.26c0.15,0,.42,0,0.71,0a4.16,4.16,0,0,0,2.73-.88,4.54,4.54,0,0,0,1.42-2.73l5.59-27.8,2.52,9.59,1.25,5.05c1.26,4.37,3.54,6.81,6,6.81h0s2.79,0.13,3.07.13h5.67A76.15,76.15,0,0,1,2399.21-111.61Z" transform="translate(-2290.52 260.69)"/><path class="cls-2" d="M2332.57-167.44c0-.13,3.66-13.94,3.34-21.64a25.79,25.79,0,0,0-2.72-11.1,10.62,10.62,0,0,0-7.39-5.93,10.83,10.83,0,0,0-1.68-.11h-0.24c-10.36,0-14.71,9-16.09,12.89,0,0.13-4.76,13-3.82,22.89,0,0.18-.63,14.38,12.57,16.4a7.56,7.56,0,0,0,1.12.08C2319.43-154,2328.4-154.61,2332.57-167.44Zm-13.9,9.26a9.35,9.35,0,0,1-1.52-.25,6.47,6.47,0,0,1-4.12-3.27,8.5,8.5,0,0,1-1.08-3.11h0V-165c-0.87-9.1,3.59-21.33,3.64-21.48,1.22-3.42,3.76-10.51,11.53-10.78l0.62,0c0.2,0.11,2.62,0,3.65,2.1a16,16,0,0,1,.66,1.69,24.76,24.76,0,0,1,.51,4.4v0.15c0.28,6.8-2.91,19.36-3.21,20.56-1.73,5.25-4.3,8-6.61,9.48A7.16,7.16,0,0,1,2318.67-158.18Z" transform="translate(-2290.52 260.69)"/><path class="cls-2" d="M2389.85-202.93c-0.29-5.44-3.24-8.2-8.78-8.2h-0.48a20.78,20.78,0,0,0-2.77.2c-3.33.45-12.62,2.38-14.44,2.77l-3.81,27.57,0.48,0v0c13.61-.21,20.66-4.39,20.73-4.43C2390.29-190.79,2389.86-202.81,2389.85-202.93Zm-19.15,4.37c3.35-.69,9.47-1.93,11.95-2.26A17.15,17.15,0,0,1,2385-201a11.14,11.14,0,0,1,1.42.09c-0.32,3.18-1.69,9.57-7.33,13a34,34,0,0,1-10.28,3.16Z" transform="translate(-2290.52 260.69)"/></svg>