<?xml version="1.0" encoding="utf-8"?>
<!-- Generator: Adobe Illustrator 19.0.0, SVG Export Plug-In . SVG Version: 6.00 Build 0)  -->
<svg version="1.1" id="Layer_2" xmlns="http://www.w3.org/2000/svg" xmlns:xlink="http://www.w3.org/1999/xlink" x="0px" y="0px"
	 viewBox="146 -86.1 595.3 568.6" style="enable-background:new 146 -86.1 595.3 568.6;" xml:space="preserve">
<style type="text/css">
	.st0{fill:#FFFFFF;}
	.st1{fill:#008DD0;}
	.st2{fill:#FAB718;}
</style>
<g>
	<g>
		<path class="st0" d="M714.5,144c-13.7-82-68.1-152.2-142.6-190.4C530.1-68,482-77.9,434.9-75.1c-82.8,5.1-159,47.9-204.4,116.5
			c-47.6,71.9-54.2,165.1-19,243.4c19,42,49.4,78,86.6,105.3c3.8,2.8,7.9,5.6,11.6,8.1c0,0.5,0,2.3,0,2.8c-0.3,3-0.5,6.1-1,9.1
			c-1,7.1-3.5,16-6.1,21c-3.5,7.6-20.3,25.8-19,28.9c2.3,5.3,7.3,8.6,12.9,10.1c11.9,3.3,25.6,3.5,38,2c26.8-3,50.4-16,67.9-36
			c85.8,17.5,177.5-8.1,239.6-69.6C701,308.1,728.1,225,714.5,144z"/>
	</g>
	<g>
		<path d="M721,141.9c-14.2-85.1-70.9-158-147.9-197.8c-43.3-22.3-93.4-32.4-142.3-29.9C345-80.7,265.7-35.8,218.6,35.1
			c-49.4,74.7-56.2,171.4-19.8,252.5c19.8,43.6,51.2,81,89.9,109.4c4.1,3,8.1,5.6,12.2,8.4c0,0.5,0,2.3,0,2.8
			c-0.3,3.3-0.5,6.3-1,9.4c-1,7.3-3.8,16.5-6.1,21.8c-3.5,7.9-8.1,13.9-14.2,18.2c-1,0.8-2.3,1.5-3.3,2c-3.3,1.8-3.3,6.6-2,9.6
			c2.3,5.6,7.6,8.9,13.4,10.4c12.4,3.5,26.6,3.5,39.3,2.3c27.9-3.3,52.2-16.5,70.4-37.2c89.1,18.2,184.1-8.4,248.7-72.4
			C706.9,312.4,735,226,721,141.9z M684.6,261.2c-26.6,76-91.9,136-170.2,158.3c-40.5,11.4-83.3,12.7-124.8,3.5
			c-0.5-0.3-1.3-0.5-1.8-0.5c-10.9-3.5-26.1-9.6-36.7-17.7c-0.5-0.3-1-0.3-1.5,0c-0.5,0.5-0.5,1,0,1.5c0.3,0.3,9.4,12.7,24.3,23.6
			c-7.9,8.9-17.2,16.2-27.9,21.8c-4.6,2.3-9.6,4.3-14.9,5.8c-2.8,0.8-5.6,1.5-8.4,2c-1.3,0.3-2.8,0.5-4.1,0.8c-0.5,0-0.8,0-1.3,0.3
			c-0.3,0-0.5,0-0.8,0c-1,0-1.8,0.3-2.8,0.3c4.6-7.9,7.9-16.7,9.9-25.1c2.8-12.2,6.1-29.4-3.3-39.5c-3.8-4.1-9.9-6.6-14.7-9.9
			c-2.3-1.5-4.6-3-6.8-4.8c-1-0.8-2.3-1.5-3.3-2.5c-0.3-0.3-2.8-2.3-3-2.3c-8.6-6.8-17-14.4-24.8-22.5c-13.9-14.4-28.4-33.9-38-51.9
			c-41.3-77-37.7-171.4,7.9-245.6c43-69.9,119.8-115.5,201.8-120.3c22.3-1.3,41.3,0,62.3,4.1c5.1,1,9.9,2,14.7,3.3
			c2.5,0.5,4.8,1.3,7.3,2c1.3,0.3,2.3,0.8,3.5,1c0.5,0.3,1,0.3,1,0.3c0.5,0.3,1,0.3,1.5,0.5c9.9,3,19.5,6.8,28.9,11.1
			c2.3,1,4.6,2,6.6,3.3c1,0.5,2.3,1,3.3,1.8c0.3,0,1.3,0.8,1.8,1c4.3,2.3,8.9,4.8,12.9,7.6c4.1,2.5,8.4,5.3,12.2,8.1
			c2,1.3,4.1,2.8,5.8,4.3c1,0.8,2,1.5,3,2.3c0.3,0.3,2.3,1.8,2.8,2c7.6,6.1,14.9,12.7,21.8,19.8c3.5,3.5,6.8,7.1,9.9,10.6
			c0.3,0.3,0.3,0.3,0.3,0.5c0.3,0.3,0.3,0.3,0.5,0.8c0.8,1,1.5,1.8,2.3,2.8c1.8,2.3,3.5,4.3,5.3,6.6c24.8,31.9,41,68.9,47.6,108.9
			C702.6,179.4,698.5,221.4,684.6,261.2z"/>
	</g>
	<g>
		<path d="M720,26.7l-7.9,8.9L711.9,47l-8.6-0.3c-0.5,0-1.5,0-2.5,0c-1.5,0-5.6,0-9.1,3c-2.5,2-4.1,5.1-4.8,9.4L661.5,185
			L633.2,78.4c-0.8-3-4.6-17.7-7.3-25.6c0,0-1.8-4.6-2.8-5.6c-3-3.3-15.2-7.1-15.2-7.1l-1,25.1l-14.4,0.5h-0.8
			c-3.8,0.5-6.8,2.3-8.9,4.6c-1.3,1.3-2,3-2.5,5.1L536.4,303l-21.3-4.1l12.4,26.6c0.3,0.5,1.3,1.8,1.5,2c2.3,2.8,6.6,3.5,15.2,4.1
			c0.8,0,1.5,0,1.8,0l23.3,0.8c0.5,0,1.5,0,2.5,0c1.5,0,5.6,0,9.4-3c2.5-2,4.1-5.1,4.8-9.4l24.6-121.8l18.2,69.1l-15.7-10.9
			l4.6,18.7c4.3,14.9,11.9,23,20.3,23l0,0c0,0,9.4,0.5,10.4,0.5h30.4h1c6.8,0,12.4-4.1,14.4-10.6c0.5-1.3,0.8-2.5,1.3-4.3L741,52.5
			l0.3-1.3c0-1.5,0-4.1-2.5-6.3L720,26.7z"/>
	</g>
	<g>
		<path class="st1" d="M714,33.8c-0.8-1-4.8-1.5-5.6-1.5L686.1,31c0,0-1.5,0-2.5,0c-1.5,0-3.3,1-4.1,1.5c-1,0.8-0.8,3.3-0.8,4.6
			l-32.9,164.1L607.1,54.6c-0.3-1.3-1-2.8-2-3.5c-0.8-0.5-2.5-2.8-4.1-2.8c-0.8,0-1.8,2-2,2l-23.8-0.8c-0.8,0-1.5,2-2.5,3
			c-0.3,0.5-0.5,1-0.8,1.5l0,0l-46.1,238.8c0,1,0,3,1,4.3c0.8,1,2.5,3.3,3.3,3.3l23-1c0,0,0.8,0,1.8,0c1.5,0,2.8-0.3,3.3-0.8
			c1-0.8,1.5-3,1.8-4.1l32.2-160.3L625.8,262c0,0.5,0.8,2.8,1.3,2.8c0.3,0,2.5,1.3,4.3,1.3H662h0.3c0.8,0,4.6-0.3,6.1-6.1
			c0.3,0,45.8-220.6,45.8-220.6C714,38.4,715,34.8,714,33.8z"/>
	</g>
	<g>
		<path d="M684.1,32.3c1,0,1.8,0,1.8,0l22.8,0.8c0.8,0,2.5,0.5,3.5,1.5c1,1,1,3,1,4.3c0,0-44.3,221.1-44.3,221.3
			c-1.5,5.8-5.3,6.1-6.1,6.1h-0.3h-30.6c-1.8,0-4.3-1.3-4.3-1.3c-0.3-0.3-1-2.5-1.3-2.8l-33.7-127.6l-32.2,160.3
			c-0.3,1.3-0.8,3.3-1.8,4.1c-0.8,0.5-1.8,0.8-3.3,0.8c-1,0-1.8,0-1.8,0l-22.8-0.8c-0.8,0-2.5-0.5-3.5-1.5c-1-1-1-3-1-4.3
			l46.1-238.8l0,0c0.3-0.8,0.5-1.3,0.8-1.5c0.8-1,2.5-1.3,3.3-1.5l23-0.8c0.3,0,0.8,0,1.8,0c1.5,0,2.8,0.3,3.3,0.8
			c1,0.8,1.5,3,1.8,4.1l39.8,146.1L679,37.4c0.3-1.3,0.8-3.3,1.8-4.1C681.5,32.5,682.6,32.3,684.1,32.3 M684.1,20.9
			c-1.5,0-6.6,0-10.6,3.5c-2.8,2.3-4.8,5.8-5.6,10.6l-23.6,116.7l-27.1-99.5c-1-4.6-2.8-7.9-5.6-10.1c-4.3-3.5-9.1-3.5-10.6-3.5
			c-1,0-1.8,0-2.5,0l-22.5,0.8h-0.8h-0.8c-3,0.5-7.1,1.8-10.1,5.3c-1.5,1.8-2.5,3.8-3,6.1c0,0.3-0.3,0.5-0.3,0.8l-46.1,238.8
			l-0.3,0.8v0.8c-0.3,4.8,1,8.9,3.5,11.9c3,3.8,7.6,5.1,10.6,5.6h0.5h0.5l22.3,0.8c0.5,0,1.5,0,2.5,0c1.5,0,6.6,0,10.6-3.5
			c2.8-2.3,4.8-5.8,5.6-10.6l22.5-112.2l21,80.3c2,7.3,5.3,9.1,6.6,9.9s5.3,2.8,9.9,2.8h30.4c0.3,0,0.3,0,0.5,0
			c6.1,0,14.2-3.8,17-14.7l0,0c0.3-1,0.5-2,0.8-3c0.3-1.5,0.8-4.1,1.5-7.1c1.3-6.1,3-14.7,5.1-25.1c4.1-20.8,9.6-48.4,15.2-76
			c11.1-55.2,22.3-110.7,22.3-110.7l0.3-0.8v-0.8c0.3-4.8-1-8.9-3.5-11.9c-3-3.8-7.6-5.1-10.6-5.6h-0.5h-0.5l-22.3-0.8
			C686.1,20.9,685.1,20.9,684.1,20.9L684.1,20.9z"/>
	</g>
	<g>
		<polygon points="457.9,269.8 468.8,282.5 472.6,278.7 472.9,274.4 		"/>
	</g>
	<g>
		<path d="M574.2,85.5l-6.8,5.6c-3.3-1.3-7.1-2.3-11.1-3c-6.3-1.3-13.2-2-18.7-2.8c-2-0.3-3.8-0.3-5.6-0.3c-5.3,0-9.6,1-13.2,3
			c-4.8,3-8.4,8.4-10.6,16.2c-3.8,12.9-7.3,26.3-10.9,39.5c-3.8,14.4-7.6,29.4-11.1,44.6c-3.8,15.4-7.1,30.1-9.9,43.8
			c-2.5,11.6-4.6,23.8-6.8,35.7l-0.3,1c-1.5,7.6-1,13.2,1.5,17.2c2.5,4.3,7.1,7.6,13.4,9.4c2,0.5,4.1,1,6.3,1.5
			c-3.3,0.3-6.6,1-9.4,2c-5.8,2-10.6,4.8-14.9,8.4c-4.3,3.5-7.6,7.9-9.9,12.4c-2,4.3-3.5,8.6-4.1,13.2l-8.6,2.3l17.7,20
			c0,0,4.3,4.6,5.8,5.6c1.3,0.8,5.3,2.3,5.3,2.3c6.1,1.5,13.2,1.5,20.5,0c5.1-1.3,9.6-2.8,13.4-5.3c3.8-2.3,7.1-4.8,9.9-7.6
			c2.8-2.8,5.1-5.6,7.1-8.6c2-3,3.3-5.8,4.3-8.1c1-3.3,1.8-6.8,1.8-10.6c0-4.3-1-8.4-3.3-12.2c-2.3-4.1-5.6-7.1-10.1-9.6
			c-1.8-1-3.5-1.8-5.6-2.3h3c6.1,0,10.4-1,13.7-3c3.8-2.5,6.6-6.6,8.4-12.9c3.3-12.2,7.1-24.6,10.1-34.9
			c3.8-12.4,7.9-25.1,12.7-39.3c4.3-12.9,8.9-26.6,14.2-41.5c3.3-9.6,6.8-19.5,10.4-28.9l4.6-12.9c1.8-4.6,2.3-8.9,2-12.9
			L574.2,85.5z"/>
	</g>
	<g>
		<path d="M362,161.2c-1.8-26.6-6.8-46.8-16-64.1c-0.8-1.5-5.8-8.6-11.6-14.4c-5.3-5.1-23.3-17.2-23.3-17.2l10.1,12.7l-16.7-16.5
			l3.3,12.9c-8.1-3-16.2-4.8-24.8-4.8c-1,0-3-0.3-6.1-0.3c-15.7,0-68.1,4.1-89.9,55.2c-2.3,4.8-28.9,59.5-23.8,128.4
			c-1.3,7.9-8.4,20.3,14.2,49.1c3,3.8,17,18.5,21.3,21.5c2,1.5,4.3,3,5.3,4.1c12.4,9.1,36.7,14.2,42.3,14.7c2.5,0.3,5.3,0.3,8.1,0.3
			l0,0c14.4,0,63.1-4.1,86.6-56.7c0.3-0.5,18.7-43.6,21-91.4C362,192.1,363.2,178.1,362,161.2z M254.1,284.3c-0.8,0-1.5,0-2-0.3
			c-2.5-0.5-5.1-1-7.3-1.8l10.9-23.6c0,0-6.6,3.8-13.9,2.5c-1.5-0.3-3-0.3-5.1-0.8c-9.4-2.5-12.4-8.6-13.9-11.1
			c-1.3-1.8-2.8-5.1-3.5-10.6l0,0v-0.5c-3-30.9,12.2-72.4,12.4-72.9c4.1-11.6,12.7-35.7,39-36.5h2c0.8,0.3,8.9,0,12.4,7.1
			c1,2.3,2.3,6.1,2.3,6.1l6.6-3.3c11.1,13.9,11.1,37.2,11.1,37.7c1,23.6-9.9,65.8-10.9,69.6C282.2,282.5,258.6,284.3,254.1,284.3z"
			/>
	</g>
	<g>
		<path d="M529.6,91.8l0.8-0.8l-5.8-6.1l-0.3-0.3c-0.8-1-1.8-2-2.8-3c-0.3-0.3-0.5-0.5-0.5-0.5L491.9,50l3,16.2
			c-10.6-3.3-20.5-3.3-24.3-3c-1.8,0-3.3-0.3-5.3-0.3c-28.1,0-68.1,11.6-84.3,16.5c-4.1,1.3-7.1,2.5-9.9,5.8c-2,2.3-3.3,5.3-3.8,9.1
			l-29.1,207.4l-42.5-12.9c0,0,32.7,32.9,45.1,42.3c4.1,3.3,11.4,3.5,11.4,3.5l20.5,0.8c0.5,0,1.5,0,2.5,0c1.5,0,6.1,0,9.9-3.3
			c2.8-2.3,4.3-5.6,5.3-10.6l9.9-70.7c55.5-2.5,89.9-22.8,89.9-23c46.1-26.3,48.6-94.2,48.9-95C539.5,116.9,536.4,102.9,529.6,91.8z
			 M459.7,184.2c-0.3,0-18,10.1-51.9,12.9l10.1-72.4c11.4-2.3,32.2-6.6,40.5-7.6c3-0.5,5.6-0.5,7.9-0.5c12.9,0,18,4.8,18.7,17.2
			C485,133.8,485.8,168.5,459.7,184.2z"/>
	</g>
	<g>
		<path class="st1" d="M319.7,88.8c-0.3-0.3-19.5-26.8-52.7-27.3c0,0-4.3-2.8-7.9-2.8c-13.9,0-60.3,5.1-79.3,50.4
			c-3.3,1-28.9,56.5-23.6,125.9c0,0.8,9.1,65.3,64.8,76.5c0.3,0,4.1,0.5,10.4,0.5l0,0c18.5,0,63.6-4.8,83.6-49.6
			c0.3-0.5,18-41.8,20-87.9C335.6,173.6,341.7,118.4,319.7,88.8z M238.6,273.6c-1.3,0-2.3,1.5-3.5,1.3c-44.8-6.8-42.5-54.4-42.5-55
			c-3.3-33.4,12.7-77.2,12.9-77.5c4.8-13.2,19.5-43.8,54.4-43.8c3.5,0,5.6,0.3,5.6,0.3c35.2,7.3,32.9,58.2,32.9,59
			c1,26.1-11.1,71.4-11.4,71.9C273.1,273.4,244.5,273.6,238.6,273.6z"/>
	</g>
	<g>
		<path d="M260.7,61.2c3.5,0,5.3,0.3,5.6,0.3c32.9,0.5,52.4,27.1,52.7,27.3c22,29.6,16,85.1,16,85.6c-2,46.1-20,87.6-20,87.9
			c-20.3,44.8-65.1,49.6-83.6,49.6l0,0c-6.3,0-10.1-0.5-10.4-0.5c-55.7-11.4-62.3-77-62.3-77.5c-5.3-69.4,22.5-123.3,22.8-123.8
			C200.1,64.7,246.7,61.2,260.7,61.2 M238.1,275.9c6.1,0,36.5-2.3,50.4-45.8c0-0.5,12.4-47.4,11.4-73.4c0-0.5,0-50.4-35.2-57.7
			c0,0-2.3-0.3-5.6-0.3c-35.2,0-49.9,30.6-54.4,43.8c-0.3,0.5-16.2,44.1-12.9,77.5c0,0.5-2,48.6,42.5,55.5
			C235.6,275.9,236.9,275.9,238.1,275.9 M260.7,49.8c-15.7,0-68.1,4.1-90.2,55.5c-3,5.8-29.1,60.8-23.8,129.4l0,0l0,0
			c0,0.8,1.8,18.7,11.4,38.7c12.9,26.6,33.7,43.6,60,49.1h0.5h0.5c1,0.3,5.3,0.8,11.6,0.8c20.8,0,71.2-5.6,93.9-56.5l0,0l0,0
			c0.3-0.5,18.7-43.6,21-91.4c0.5-5.8,5.8-61-18-93.2c-1.8-2.5-23.6-31.1-61-32.2C266,49.8,263.7,49.8,260.7,49.8L260.7,49.8z
			 M238.1,264.5c-1,0-1.8,0-2-0.3c-14.4-2.3-24.1-9.6-29.1-22.8c-4.1-10.6-3.8-20.8-3.8-21v-0.8v-0.8c-3-30.6,12.2-72.2,12.4-72.7
			l0,0l0,0c1.8-5.1,6.1-14.9,13.4-22.8c8.4-8.9,18.2-13.4,30.4-13.4c1.8,0,3.3,0.3,3.5,0.3c25.6,5.6,25.8,46.1,25.8,46.3v0.3v0.3
			c1,23-9.9,65.6-10.9,69.6C266,262.7,242.7,264.5,238.1,264.5L238.1,264.5z"/>
	</g>
	<g>
		<path class="st1" d="M500.7,64.2c-13.7-13.9-34.7-13.4-42.3-13.4c-1.5,0-2.3,0-2.3,0c-1.8,0-3.5-0.3-5.3-0.3
			c-26.6,0-65.3,11.1-81,16c-3,1-4.1,1.5-5.1,2.8c-0.8,0.8-1,2.8-1.3,3.3l0,0l-31.4,223.1c0,0.5,0,2.8,0.8,3.5c0.8,0.8,2.3,1,3,1.3
			l22.8,0.8c0,0,0.8,0,1.8,0c1.5,0,2.3-0.3,2.8-0.8c0.8-0.8,1.3-3,1.5-3.5l11.1-80l0,0l0,0c58-0.5,93.7-21.5,93.9-21.8
			c40.8-23.3,43-85.1,43-85.6C513.6,91,510.6,74.3,500.7,64.2z M450.6,170.6c-0.3,0.3-24.1,14.2-70.4,14.9L393.1,92
			c6.1-1.3,37.7-7.9,48.9-9.4c3.5-0.5,6.6-0.8,9.4-0.8c18.7,0,28.9,9.4,29.6,27.9C481.2,110.3,482.8,151.1,450.6,170.6z"/>
	</g>
	<g>
		<path d="M452.4,50.8c1.8,0,3.5,0,5.3,0.3c0,0,0.8,0,2.3,0c7.6,0,26.8,1.5,40.5,15.4c9.9,10.1,14.7,24.8,14.2,43.3
			c0,0.5-2.3,62.5-43,85.6c-0.3,0.3-36,21.3-93.9,21.8l0,0l0,0l-11.1,80c-0.3,0.8-0.5,3-1.5,3.5c-0.5,0.5-1.5,0.8-2.8,0.8
			c-1,0-1.8,0-1.8,0l-22.8-0.8c-0.5,0-2.3-0.5-3-1.3c-0.8-1-0.8-3-0.8-3.5l31.4-223.1l0,0c0-0.5,0.3-2.3,1.3-3.3s2-1.8,5.1-2.8
			C387,61.9,426,50.8,452.4,50.8 M381.7,185.5c46.1-0.8,70.1-14.9,70.1-14.9c32.2-19.5,30.6-60.3,30.6-60.8
			c-1-18.5-10.9-27.9-29.6-27.9c-2.8,0-5.8,0.3-9.4,0.8c-11.1,1.5-42.8,8.1-48.9,9.4L381.7,185.5 M452.4,39.4
			C424.3,39.4,384,51,368,55.8c-3.8,1.3-7.1,2.8-10.1,6.1c-2,2.3-3.3,5.3-4.1,9.4l-31.4,223.1v0.5v0.5c-0.3,3.3,0.3,7.9,3.3,11.4
			c3,3.5,7.1,4.8,9.9,5.1h0.5h0.5l22.5,0.8c0.5,0,1.5,0,2.5,0c1.5,0,6.3,0,10.1-3.3c2.8-2.3,4.6-5.6,5.3-10.4v-0.3v-0.3l9.6-70.7
			c21.5-1,43-4.8,62.3-11.4c16.2-5.3,25.8-10.6,27.3-11.6l0,0c19.2-10.9,33.9-30.9,42-57.7c6.1-20,6.8-37.2,6.8-37.5
			c0.5-21.8-5.3-39.3-17.5-51.7c-16.7-17.2-39.5-19-48.6-19c-0.8,0-1.5,0-2.3,0C455.9,39.4,454.1,39.4,452.4,39.4L452.4,39.4z
			 M405,101.7c11.6-2.5,31.9-6.6,40.3-7.6c3-0.5,5.6-0.5,7.9-0.5c12.7,0,17.7,4.6,18.5,17c0,1.5,0.3,34.9-25.3,50.4
			c-6.6,3.8-24.8,10.6-51.4,12.7L405,101.7L405,101.7z"/>
	</g>
	<g>
		<polygon points="464.3,255.1 475.4,271.3 475.9,259.7 		"/>
	</g>
	<g>
		<polygon points="447.8,329.1 467.6,344.8 462.7,325.8 		"/>
	</g>
	<g>
		<polygon points="506.6,293.1 517.4,308.8 514.9,312.4 505.8,302.5 		"/>
	</g>
	<g>
		<path class="st2" d="M469.1,341.7c-5.6,0-10.6-1.3-14.9-3.5c-7.3-4.1-11.4-12.4-10.4-22c0.5-4.3,1.5-8.6,3.5-12.7
			c2-4.1,5.1-7.9,8.9-11.1c3.8-3.3,8.4-5.8,13.4-7.6c4.3-1.5,8.9-2,14.2-2c1,0,2,0,3.3,0c5.8,0.3,10.4,1.5,13.9,3.5
			c3.8,2,6.6,4.8,8.4,8.1c1.8,3.3,2.8,6.6,2.8,10.1c0,3.3-0.5,6.3-1.5,9.1c-0.8,2-2,4.3-3.8,7.1c-1.8,2.8-4.1,5.3-6.6,7.9
			c-2.5,2.5-5.6,4.8-9.1,7.1c-3.5,2-7.6,3.5-12.2,4.8C475.7,341.2,472.4,341.7,469.1,341.7z M497.4,276.1c-4.1,0-8.1,0-11.6-0.5
			c-4.8-0.5-9.1-1.3-13.2-2.3c-5.3-1.5-9.1-4.1-10.9-7.3c-1.8-3.3-2.3-7.9-1-14.4l0.3-1.3c2-11.6,4.3-23.8,6.8-35.5
			c2.8-13.7,6.3-28.4,9.9-43.6c3.5-14.9,7.3-29.9,11.1-44.3c3.5-13.2,7.1-26.6,10.9-39.5c2-6.8,4.8-11.4,8.9-13.9
			c2.8-1.8,6.3-2.5,10.9-2.5c1.5,0,3.3,0,5.1,0.3c5.6,0.5,11.9,1.3,18.2,2.5c6.8,1.5,12.7,3.5,17.5,5.8c5.8,2.8,9.6,6.6,11.4,10.6
			c1.5,4.1,1.3,9.1-1,15.2c-1.5,4.1-2.8,7.9-4.3,11.9c-3.5,9.9-7.1,20-10.6,29.9c-5.3,15.2-9.9,28.6-14.2,41.5
			c-4.8,14.2-8.9,27.1-12.7,39.3c-3.3,10.4-6.8,22.8-10.1,35.2c-1.3,5.1-3.5,8.4-6.3,10.4c-2.5,1.5-6.1,2.3-11.1,2.3L497.4,276.1z"
			/>
	</g>
	<g>
		<path d="M519.2,76.1c1.5,0,3,0,4.6,0.3c5.8,0.5,11.9,1.3,17.7,2.5c6.3,1.3,11.9,3,16.5,5.3c4.8,2.3,7.9,5.1,8.9,8.1
			c1,3,0.8,6.8-1,11.9c-5.1,13.9-10.1,27.9-14.9,41.8s-9.6,27.9-14.4,41.8c-4.3,13.2-8.6,26.3-12.7,39.5
			c-3.5,11.6-7.1,23.6-10.1,35.2c-1,3.8-2.5,6.3-4.3,7.6c-1.8,1.3-4.8,1.5-8.6,1.5c-0.3,0-0.3,0-0.5,0c-4.8,0-9.6,0-13.9-0.5
			c-4.3-0.5-8.4-1-12.2-2.3c-4.1-1.3-6.8-2.8-8.1-5.1c-1.3-2.3-1.3-6.1-0.5-11.1c2.3-11.9,4.6-24.3,7.1-36.5
			c3-14.4,6.3-29.1,9.9-43.6c3.5-14.7,7.3-29.6,11.1-44.3c3.5-13.2,7.1-26.3,10.6-39.3c1.5-5.6,3.8-9.4,6.6-11.1
			C512.9,76.6,515.7,76.1,519.2,76.1 M483.8,287.8c1,0,2,0,3,0c4.8,0.3,8.9,1.3,11.9,2.8c3,1.8,5.3,3.8,6.6,6.3c1.3,2.5,2,5.1,2,7.9
			s-0.3,5.3-1,7.3c-0.5,1.8-1.8,3.8-3.3,6.1c-1.5,2.5-3.5,4.8-5.8,7.1c-2.3,2.3-5.1,4.3-8.4,6.3s-6.8,3.3-10.9,4.1
			c-2.8,0.5-5.8,1-8.9,1c-4.3,0-8.9-0.8-12.7-3c-6.3-3.3-8.6-10.6-7.9-17.2c0.3-3.5,1.3-7.3,3-10.9c1.8-3.5,4.3-6.8,7.6-9.6
			c3.3-2.8,7.3-5.1,11.9-6.6C474.9,288.3,479.2,287.8,483.8,287.8 M519.2,66.5L519.2,66.5c-5.6,0-9.9,1-13.4,3.3
			c-5.1,3-8.6,8.6-10.9,16.7c-3.8,12.9-7.3,26.3-10.9,39.5c-3.8,14.4-7.6,29.4-11.1,44.6c-3.8,15.2-7.1,29.9-9.9,43.8
			c-2.5,11.9-4.8,23.8-6.8,35.5l-0.3,1.3c-1,5.1-1.8,12.2,1.5,17.7c2.5,4.6,7.3,7.6,13.9,9.6c1,0.3,1.8,0.5,2.8,0.8
			c-2,0.5-4.1,1-6.1,1.5c-5.8,2-10.9,4.8-15.2,8.4c-4.3,3.5-7.6,7.9-10.1,12.7c-2.3,4.6-3.8,9.4-4.1,14.4
			c-1,11.6,4.1,21.8,12.9,26.8c5.1,2.8,10.9,4.1,17.5,4.1c3.5,0,7.1-0.5,10.9-1.3c5.1-1.3,9.9-3,13.7-5.3c3.8-2.3,7.1-4.8,10.1-7.6
			c2.8-2.8,5.3-5.6,7.3-8.6c2-3,3.5-5.8,4.3-8.4c1.3-3.3,1.8-6.8,1.8-10.6c0-4.3-1.3-8.6-3.3-12.4c-2.3-4.1-5.8-7.3-10.4-9.9
			c-0.8-0.5-1.5-0.8-2.3-1c4.1,0,9.1-0.5,13.2-3c4.1-2.5,6.8-6.8,8.6-13.2c3.3-12.2,7.1-24.6,10.1-34.9c3.8-12.4,7.9-25.1,12.7-39.3
			c4.3-12.9,8.9-26.6,14.2-41.5c3.5-9.9,7.1-20,10.6-29.9c1.5-4.1,2.8-7.9,4.3-11.9c2.5-7.1,2.8-13.4,1-18.5
			c-2-5.3-6.6-9.9-13.7-13.4c-5.3-2.5-11.4-4.6-18.7-6.1c-6.3-1.3-13.2-2-18.7-2.8C522.5,66.5,520.7,66.5,519.2,66.5L519.2,66.5z"/>
	</g>
	<g>
		<polygon points="522.3,316.2 513.4,292.9 511.1,309.8 		"/>
	</g>
</g>
</svg>
