<svg xmlns="http://www.w3.org/2000/svg" width="142" height="124" viewBox="0 0 142 124">
  <defs>
    <style>
      .cls-1 {
        fill: #c3302a;
        fill-rule: evenodd;
      }
    </style>
  </defs>
  <path class="cls-1" d="M748.974,402H618.936a1.869,1.869,0,0,0-.271-0.072,6.359,6.359,0,0,1-5.482-4.8c-0.071-.291-0.128-0.584-0.189-0.877v-1.23a8.786,8.786,0,0,1,1.013-2.835q29.3-50.46,58.6-100.93,2.886-4.972,5.773-9.944a6.294,6.294,0,0,1,3.563-2.947,15.865,15.865,0,0,1,1.724-.37h0.58a1.318,1.318,0,0,0,.2.055,6.46,6.46,0,0,1,5.232,3.451q24.2,41.718,48.424,83.427,7.989,13.761,15.987,27.516a10.263,10.263,0,0,1,.74,1.9,6.6,6.6,0,0,1,.175,1v0.49c-0.024.135-.057,0.267-0.07,0.4a6.3,6.3,0,0,1-4.472,5.444C749.976,401.83,749.467,401.9,748.974,402Zm-118.53-12.745H737.49q-26.774-46.119-53.524-92.195Q657.179,343.206,630.444,389.255Zm59.9-49.687c0,4.748.015,9.5-.008,14.244a6.377,6.377,0,0,1-12.752-.187q-0.015-14.055.006-28.116a6.926,6.926,0,0,1,.225-1.742,6.371,6.371,0,0,1,12.462.824,9.324,9.324,0,0,1,.068,1.143q0,6.918,0,13.834h0Zm-6.385,26.108a7.931,7.931,0,1,1-7.975,7.89A7.936,7.936,0,0,1,683.963,365.676Z" transform="translate(-613 -278)"/>
</svg>
